<?xml version="1.0" encoding="UTF-8" standalone="no"?>
<svg
   height="24px"
   viewBox="0 0 24 24"
   width="24px"
   fill="#000000"
   version="1.1"
   id="svg6"
   sodipodi:docname="home.svg"
   inkscape:version="1.1.1 (3bf5ae0d25, 2021-09-20)"
   xmlns:inkscape="http://www.inkscape.org/namespaces/inkscape"
   xmlns:sodipodi="http://sodipodi.sourceforge.net/DTD/sodipodi-0.dtd"
   xmlns="http://www.w3.org/2000/svg"
   xmlns:svg="http://www.w3.org/2000/svg">
  <defs
     id="defs10" />
  <sodipodi:namedview
     id="namedview8"
     pagecolor="#ffffff"
     bordercolor="#666666"
     borderopacity="1.0"
     inkscape:pageshadow="2"
     inkscape:pageopacity="0.0"
     inkscape:pagecheckerboard="0"
     showgrid="false"
     inkscape:zoom="21.666667"
     inkscape:cx="12"
     inkscape:cy="12.023077"
     inkscape:window-width="1366"
     inkscape:window-height="705"
     inkscape:window-x="-8"
     inkscape:window-y="-8"
     inkscape:window-maximized="1"
     inkscape:current-layer="svg6" />
  <path
     d="M0 0h24v24H0V0z"
     fill="none"
     id="path2" />
  <g
     id="g2450">
    <path
       d="M12 5.69l5 4.5V18h-2v-6H9v6H7v-7.81l5-4.5M12 3L2 12h3v8h6v-6h2v6h6v-8h3L12 3z"
       id="path4" />
    <path
       style="fill:#0066ff;stroke-width:0.0461538"
       d="M 5.0076923,15.969879 V 11.97822 L 3.5510092,11.966033 2.0943261,11.953846 7.0333925,7.5090583 C 9.7498791,5.064425 11.98904,3.0680393 12.009306,3.0726456 c 0.02027,0.00461 2.25524,2.0047609 4.966608,4.4447879 l 4.92976,4.4364125 -1.456683,0.01219 -1.456683,0.01219 v 3.991659 3.991659 h -2.976923 -2.976923 v -3 -3 H 12 10.961538 v 3 3 H 7.9846154 5.0076923 Z m 4.0153846,-0.946802 v -3 H 12 14.976923 v 3 3 h 1.015385 1.015384 l -5.77e-4,-3.934615 -5.77e-4,-3.934616 -2.480192,-2.2297609 C 13.162241,6.6977162 12.029737,5.6904085 12.009672,5.6856234 c -0.02006,-0.00479 -1.15692,0.9986074 -2.5263462,2.2297612 l -2.4898647,2.2384614 -5.769e-4,3.934616 -5.765e-4,3.934615 h 1.0153846 1.0153846 z"
       id="path882" />
    <path
       style="fill:#0066ff;stroke-width:0.0461538"
       d="m 5.0076923,15.969231 c 0,-2.195769 -0.00519,-3.995294 -0.011539,-3.998944 -0.00635,-0.0037 -0.6415171,-0.01923 -1.411491,-0.03462 L 2.1847101,11.907692 5.7077397,8.74083 C 10.159368,4.7392479 11.632493,3.4215215 11.847966,3.2483292 l 0.171044,-0.1374801 0.890495,0.7946906 c 0.489772,0.4370798 2.693851,2.4163695 4.897952,4.3984215 l 4.007458,3.6037308 -1.399765,0.02798 c -0.769871,0.01539 -1.404958,0.03097 -1.411304,0.03462 -0.0063,0.0036 -0.01154,1.803175 -0.01154,3.998944 v 3.992307 H 16.015383 13.03846 v -3 -3 H 12 10.961538 v 3 3 H 7.9846154 5.0076923 Z m 4.0153846,-0.946154 v -3 H 12 14.976923 v 3 3 h 1.015385 1.015384 l -0.0011,-3.957692 -0.0011,-3.957693 -2.059667,-1.8461535 C 13.813098,7.2461538 12.690353,6.2436249 12.450926,6.0336964 L 12.015604,5.6520082 11.846263,5.7869321 C 11.69258,5.9093809 10.459499,7.0067227 7.9245646,9.2769231 l -0.9276471,0.8307689 -0.0023,3.957693 -0.00231,3.957692 h 1.0153846 1.0153846 z"
       id="path958" />
    <path
       style="fill:#0066ff;stroke-width:0.0461538"
       d="M 7.0384615,14.086076 V 10.195229 L 9.4926388,7.9860762 C 10.842436,6.771042 11.970749,5.7769231 12,5.7769231 c 0.02925,0 1.157564,0.9941189 2.507361,2.2091531 l 2.454177,2.2091528 v 3.890847 3.890847 h -0.96923 -0.969231 v -3 -3 H 12 8.9769231 v 3 3 H 8.0076923 7.0384615 Z"
       id="path1004" />
    <path
       style="fill:#0066ff;stroke-width:0.0461538"
       d="M 7.0384615,14.104779 V 10.232635 L 8.5730769,8.8532925 C 9.4171154,8.094654 10.481538,7.1436371 10.938462,6.7399218 11.395385,6.3362065 11.821154,5.9591915 11.884615,5.9021107 L 12,5.7983275 12.530769,6.2628573 c 0.291923,0.2554914 1.408269,1.2527725 2.480769,2.2161801 l 1.95,1.7516506 v 3.873117 3.873118 h -0.96923 -0.969231 v -3 -3 H 12 8.9769231 v 3 3 H 8.0076923 7.0384615 Z"
       id="path1043" />
    <path
       style="fill:#0066ff;stroke-width:0.0461538"
       d="m 5.0076923,15.969231 c 0,-2.195769 -0.00519,-3.995294 -0.011539,-3.998944 -0.00635,-0.0037 -0.6421294,-0.01923 -1.4128517,-0.03462 L 2.1819888,11.907692 3.7217636,10.52137 C 9.7021209,5.1370097 11.980767,3.1081829 12.027512,3.1262233 c 0.0357,0.013778 1.090728,0.9585026 6.221019,5.5706105 l 3.571608,3.2108582 -1.402378,0.02798 c -0.771307,0.01539 -1.407569,0.03097 -1.413915,0.03462 -0.0063,0.0036 -0.01154,1.803175 -0.01154,3.998944 v 3.992307 H 16.015383 13.03846 v -3 -3 H 12 10.961538 v 3 3 H 7.9846154 5.0076923 Z m 4.0153846,-0.946154 v -3 H 12 14.976923 v 3 3 h 1.015385 1.015384 l -0.0022,-3.957692 -0.0022,-3.957693 L 16.440106,9.60507 C 16.130356,9.3286274 15.028503,8.3420889 13.991546,7.4127622 12.954588,6.4834353 12.079694,5.7079262 12.047336,5.6894087 11.990769,5.6570367 11.359049,6.206052 8.1318152,9.0923077 l -1.1353407,1.0153843 -0.00208,3.957693 -0.00209,3.957692 h 1.0153846 1.0153846 z"
       id="path1082" />
    <path
       style="fill:#0066ff;stroke-width:0.0461538"
       d="m 5.0076923,15.973169 v -3.98837 l -0.3115385,-0.01888 c -0.1713461,-0.01039 -0.798541,-0.0232 -1.3937664,-0.02847 -0.5952253,-0.0053 -1.0887084,-0.01607 -1.096629,-0.02399 -0.021535,-0.02153 9.0950246,-8.2173195 9.6089476,-8.6384402 l 0.208501,-0.1708514 0.380704,0.3427968 c 0.209387,0.1885382 1.201089,1.0781715 2.203781,1.9769629 4.36173,3.909759 7.202227,6.4738549 7.187752,6.4883309 -0.0086,0.0086 -0.502606,0.01992 -1.097832,0.02519 -0.595225,0.0053 -1.22242,0.01809 -1.393766,0.02847 l -0.311538,0.01888 v 3.98837 3.988369 h -2.976923 -2.976923 v -3 -3 H 12 10.961538 v 3 3 H 7.9846154 5.0076923 Z m 4.0153846,-0.950092 v -3 H 12 14.976923 v 3 3 h 1.015385 1.015384 l -0.0022,-3.957692 -0.0022,-3.957693 -1.367124,-1.2230766 C 12.575844,6.1467006 12.067349,5.7000433 12.011851,5.701001 11.939861,5.702241 11.442006,6.134832 8.958792,8.3538462 l -1.9626623,1.7538458 -0.00191,3.957693 -0.00191,3.957692 h 1.0153846 1.0153846 z"
       id="path1121" />
    <rect
       style="fill:#0066ff"
       id="rect2135"
       width="11.538462"
       height="4.0153847"
       x="6.2307692"
       y="9.092308"
       rx="2.99438"
       ry="4.0153847" />
    <rect
       style="fill:#0066ff"
       id="rect2239"
       width="3.4615386"
       height="5.6307693"
       x="10.246154"
       y="5.0307693"
       rx="2.99438"
       ry="4.0153799" />
    <rect
       style="fill:#0066ff"
       id="rect2241"
       width="3.5538461"
       height="4.879231"
       x="6.4461536"
       y="7.6900001"
       rx="2.99438"
       ry="4.0153799" />
    <rect
       style="fill:#0066ff"
       id="rect2345"
       width="3.2769232"
       height="3.1555188"
       x="8.7230768"
       y="5.7983274"
       rx="2.99438"
       ry="3.1555188" />
    <rect
       style="fill:#0066ff"
       id="rect2347"
       width="3"
       height="3.3401341"
       x="12"
       y="5.7983274"
       rx="2.99438"
       ry="3.15552" />
    <rect
       style="fill:#0066ff"
       id="rect2349"
       width="3.4846148"
       height="2.9845343"
       x="13.476923"
       y="7.2461538"
       rx="2.99438"
       ry="2.9845343" />
    <rect
       style="fill:#0066ff"
       id="rect2351"
       width="4.2461538"
       height="8.1692305"
       x="13.707692"
       y="10.661539"
       rx="2.99438"
       ry="2.98453" />
    <rect
       style="fill:#0066ff"
       id="rect2353"
       width="3.5076923"
       height="8.1230774"
       x="6.2307692"
       y="10.8"
       rx="2.99438"
       ry="2.98453" />
  </g>
</svg>
